<svg id="Layer_1" data-name="Layer 1" xmlns="http://www.w3.org/2000/svg" xmlns:xlink="http://www.w3.org/1999/xlink" viewBox="0 0 1106.67 256.59"><defs><style>.cls-1 { fill: url("#linear-gradient"); }.cls-2 { fill: url("#linear-gradient-2"); }.cls-3 { fill: url("#linear-gradient-3"); }.cls-4 { fill: rgb(229, 57, 73); }.cls-5 { opacity: 0.2; fill: url("#linear-gradient-4"); }.cls-6, .cls-7 { opacity: 0.3; }.cls-6 { fill: url("#linear-gradient-5"); }.cls-7 { fill: url("#linear-gradient-6"); }.cls-8 { fill: rgb(46, 63, 81); }</style><linearGradient id="linear-gradient" x1="152.72" y1="245.3" x2="177.56" y2="144.77" gradientUnits="userSpaceOnUse"><stop offset="0.17" stop-color="#db2733"/><stop offset="0.88" stop-color="#e74347"/></linearGradient><linearGradient id="linear-gradient-2" x1="19.02" y1="66.48" x2="286.05" y2="52.28" gradientUnits="userSpaceOnUse"><stop offset="0" stop-color="#e4403a"/><stop offset="0.48" stop-color="#eb5843"/><stop offset="1" stop-color="#e94c45"/></linearGradient><linearGradient id="linear-gradient-3" x1="51.72" y1="83.82" x2="227.13" y2="141.15" gradientUnits="userSpaceOnUse"><stop offset="0" stop-color="#e84a46"/><stop offset="0.5" stop-color="#e95045"/><stop offset="1" stop-color="#df3335"/></linearGradient><linearGradient id="linear-gradient-4" x1="5.8" y1="84.49" x2="64.54" y2="107.1" gradientUnits="userSpaceOnUse"><stop offset="0" stop-color="#ffd9d9" stop-opacity="0.4"/><stop offset="0.26" stop-color="#ffd9d9" stop-opacity="0.39"/><stop offset="0.48" stop-color="#ffd7d8" stop-opacity="0.35"/><stop offset="0.68" stop-color="#ffd5d6" stop-opacity="0.28"/><stop offset="0.87" stop-color="#fed3d3" stop-opacity="0.19"/><stop offset="1" stop-color="#fed0d1" stop-opacity="0.1"/></linearGradient><linearGradient id="linear-gradient-5" x1="102.07" y1="230.66" x2="182.49" y2="203.33" gradientUnits="userSpaceOnUse"><stop offset="0" stop-color="#ffd9d9" stop-opacity="0.3"/><stop offset="0.31" stop-color="#ffd8d8" stop-opacity="0.29"/><stop offset="0.57" stop-color="#ffd7d7" stop-opacity="0.25"/><stop offset="0.8" stop-color="#fed4d4" stop-opacity="0.18"/><stop offset="1" stop-color="#fed0d1" stop-opacity="0.1"/></linearGradient><linearGradient id="linear-gradient-6" x1="252.45" y1="149.48" x2="200.67" y2="145.01" xlink:href="#linear-gradient-5"/></defs><path class="cls-1" d="M258.33,135.85a52.38,52.38,0,0,1-.49,7.13,50.49,50.49,0,0,1-84.72,29.54c-.43-.45-.86-.88-1.31-1.29a27.88,27.88,0,1,0,1.33,39.65c.25-.26.5-.53.74-.8a18.48,18.48,0,0,1,13-5.66c-16.73.6-25,39-55.43,39-30,0-40.84-33.2-41.49-35.28l0-.1a65.09,65.09,0,0,1,63-81.37c1.75,0,3.48.07,5.2.2a64.93,64.93,0,0,1,39.85,18h0a11.1,11.1,0,0,0,1,1l.09.08h0c.42.48,13.59,15.73,31.16,15.73,24.35,0,28.08-27.73,28.08-27.73C258.32,134.51,258.33,135.18,258.33,135.85Z" transform="translate(-2.16 -0.21)"/><path class="cls-2" d="M305.29,108.39a18.61,18.61,0,0,1-25-5A155.87,155.87,0,0,0,44.92,80.9,13.45,13.45,0,0,0,39.42,93,13.46,13.46,0,0,0,57,104.56c-5.34,3.2-13.5,7-22,7-34.7,0-28-41.16-25.4-46.15a50.64,50.64,0,0,1,6-7.91c.22-.23.44-.46.67-.68,1-1,1.93-1.92,2.92-2.86A193.49,193.49,0,0,1,310.63,81.68,18.66,18.66,0,0,1,305.29,108.39Z" transform="translate(-2.16 -0.21)"/><path class="cls-3" d="M258.29,133.85s-3.73,27.73-28.08,27.73c-17.57,0-30.74-15.25-31.16-15.73a13.3,13.3,0,0,0,19.08-18.4,0,0,0,0,0,0,0,12.62,12.62,0,0,0-1.33-1.41s0,0,0,0c-11.72-12.1-27.87-20.81-46.24-24.19a94.09,94.09,0,0,0-17.1-1.55c-25.22,0-47.85,9.89-63.09,25.5-.54.55-1.07,1.11-1.59,1.67l0,0a50.61,50.61,0,0,1-79.14-62C7,70.4.28,111.57,35,111.57c8.49,0,16.64-3.81,22-7l.22-.08a13.35,13.35,0,0,0,4.63-2.73,12.6,12.6,0,0,0,1.42-1.5h0c1.88-1.94,3.85-3.83,5.89-5.67a120.93,120.93,0,0,1,31.22-20.29,129.32,129.32,0,0,1,53.08-11.23c31.75,0,61.69,11.19,84.31,31.52q3.24,2.93,6.21,6a.46.46,0,0,1,.07.07l.72.77.51.54A50.28,50.28,0,0,1,258.29,133.85Z" transform="translate(-2.16 -0.21)"/><path class="cls-4" d="M205.88,223a18.61,18.61,0,0,1-3.8,11.29c-.73.84-1.48,1.66-2.26,2.46a65,65,0,0,1-97.39-4h0q-2-2.44-3.75-5.09a64.8,64.8,0,0,1-8.74-19.54c.65,2.08,11.52,35.28,41.49,35.28,30.42,0,38.7-38.36,55.43-39h.4a18.55,18.55,0,0,1,9.61,2.67l2,1.4A18.58,18.58,0,0,1,205.88,223Z" transform="translate(-2.16 -0.21)"/><path class="cls-5" d="M58,106.27c-5.56,3.33-14.07,7.3-23,7.3-11.39,0-19.69-4.19-24.68-12.44C6,94,5.19,85.26,5.31,79.23A60.21,60.21,0,0,1,5.76,73a51,51,0,0,1,3.82-7.6C7,70.4.28,111.57,35,111.57c8.49,0,16.64-3.81,22-7l.22-.08Z" transform="translate(-2.16 -0.21)"/><path class="cls-6" d="M186.93,206.41c-6.16.22-11.41,6.83-17.5,14.48-8.68,10.91-19.47,24.48-38,24.48-10.94,0-20.85-4.34-29-12.63h0q-2-2.44-3.75-5.09a64.8,64.8,0,0,1-8.74-19.54c.65,2.08,11.52,35.28,41.49,35.28,30.42,0,38.7-38.36,55.43-39h0Z" transform="translate(-2.16 -0.21)"/><path class="cls-7" d="M258.33,135.85a52.38,52.38,0,0,1-.49,7.13,42.59,42.59,0,0,1-2.73,5.72c-5.57,9.73-14.19,14.87-24.9,14.87-18.43,0-32.1-15.75-32.67-16.42l1.41-1.39.09.08h0c.42.48,13.59,15.73,31.16,15.73,24.35,0,28.08-27.73,28.08-27.73C258.32,134.51,258.33,135.18,258.33,135.85Z" transform="translate(-2.16 -0.21)"/><path class="cls-8" d="M445.67,66.89a47.13,47.13,0,0,1,15.51,2.38A33.42,33.42,0,0,1,472.76,76,28.59,28.59,0,0,1,480,86.31a34.1,34.1,0,0,1,2.47,13.12q0,9.72-5,16.45a27.72,27.72,0,0,1-12.86,9.62,28.39,28.39,0,0,1,15.67,10.31,29.43,29.43,0,0,1,6,18.49,32.87,32.87,0,0,1-2.73,13.46,31.49,31.49,0,0,1-7.58,10.57,34.41,34.41,0,0,1-11.85,6.9,45.64,45.64,0,0,1-15.33,2.47H404.1V66.89ZM443,118q9,0,14.05-4.6t5-12.27q0-7.67-5.11-12.27t-14.49-4.6H424.37V118Zm2.21,52.31q9.19,0,14.74-4.6t5.54-12.78a17.14,17.14,0,0,0-5-12.78q-5-4.93-14.57-4.94H424.37v35.1Z" transform="translate(-2.16 -0.21)"/><path class="cls-8" d="M580.45,164a38.67,38.67,0,0,1-4.94,10.23,35,35,0,0,1-8,8.35,38.24,38.24,0,0,1-10.9,5.62,43.07,43.07,0,0,1-13.64,2,44.17,44.17,0,0,1-16.18-3,39,39,0,0,1-13.46-8.69,42.48,42.48,0,0,1-9.29-14,47.94,47.94,0,0,1-3.49-18.83,46.21,46.21,0,0,1,3.32-17.89,42.6,42.6,0,0,1,8.94-13.72,40.75,40.75,0,0,1,13-8.86,38,38,0,0,1,15.17-3.15A45.19,45.19,0,0,1,558,105.23a34.83,34.83,0,0,1,12.78,8.69,37.75,37.75,0,0,1,7.93,13.54,54.77,54.77,0,0,1,2.72,17.81c0,1.59-.05,3-.17,4.18a9.17,9.17,0,0,1-.34,2.13H520.3a21.68,21.68,0,0,0,2.05,8.69,22.73,22.73,0,0,0,4.94,6.81,22.43,22.43,0,0,0,7.07,4.52,22.73,22.73,0,0,0,8.6,1.62q9,0,13.89-4.18a22.82,22.82,0,0,0,6.9-10.31Zm-18.91-26.92a22.31,22.31,0,0,0-1.45-6.9,16.73,16.73,0,0,0-3.84-5.88,19,19,0,0,0-6.3-4.09,23.37,23.37,0,0,0-8.86-1.53,20.19,20.19,0,0,0-8.26,1.62,19.41,19.41,0,0,0-6.22,4.26,21.3,21.3,0,0,0-4.09,6,18.1,18.1,0,0,0-1.71,6.56Z" transform="translate(-2.16 -0.21)"/><path class="cls-8" d="M594.59,165.21a23.43,23.43,0,0,1,2-9.89,24.19,24.19,0,0,1,5.28-7.41,25.24,25.24,0,0,1,7.93-5,45.15,45.15,0,0,1,9.88-2.73l21.3-3.24q3.57-.51,4.86-2.13a6,6,0,0,0,1.27-3.83,12.05,12.05,0,0,0-3.75-9q-3.75-3.66-11.92-3.66-7.85,0-12.1,4.34a17.43,17.43,0,0,0-4.94,10.65l-18.06-4.09A26.19,26.19,0,0,1,599.53,119a30.83,30.83,0,0,1,7.16-8.69,33.68,33.68,0,0,1,10.65-6,41.05,41.05,0,0,1,13.89-2.22,45.81,45.81,0,0,1,16.27,2.56,29.68,29.68,0,0,1,10.9,6.81,26.33,26.33,0,0,1,6.14,9.89,35.55,35.55,0,0,1,2,11.75v41.24a79.2,79.2,0,0,0,.42,9.11c.29,2.33.49,3.73.6,4.18h-18.4a16.41,16.41,0,0,1-.51-3,63,63,0,0,1-.34-7.59,29.48,29.48,0,0,1-9.21,9q-6.3,4.17-16.35,4.17a31.77,31.77,0,0,1-11.68-2,27,27,0,0,1-8.86-5.54,24.4,24.4,0,0,1-5.62-8A23.39,23.39,0,0,1,594.59,165.21Zm31.87,9.54a27.44,27.44,0,0,0,7.83-1.11,17.12,17.12,0,0,0,6.56-3.58,17.43,17.43,0,0,0,4.52-6.56,26.78,26.78,0,0,0,1.7-10.22v-3.75l-21.64,3.24a17.15,17.15,0,0,0-7.84,3.49c-2.15,1.76-3.23,4.35-3.23,7.75a10.56,10.56,0,0,0,3.06,7.5Q620.5,174.75,626.46,174.75Z" transform="translate(-2.16 -0.21)"/><path class="cls-8" d="M689.5,187.7v-83h18.91v10.56A23.33,23.33,0,0,1,719,105.65a32.31,32.31,0,0,1,14-3.32A30.2,30.2,0,0,1,747.77,106a23.46,23.46,0,0,1,10.06,11q4.93-8.19,11.84-11.42a35,35,0,0,1,15.08-3.24,32.43,32.43,0,0,1,10.91,1.88,26.73,26.73,0,0,1,9.37,5.7,28,28,0,0,1,6.56,9.8,37,37,0,0,1,2.47,14.14V187.7H795V137.09a19,19,0,0,0-3.83-12.18q-3.84-4.86-12.18-4.86a15.8,15.8,0,0,0-12.53,5.37,19.15,19.15,0,0,0-4.68,13V187.7H742.32V137.09a19.45,19.45,0,0,0-3.75-12.1q-3.75-4.93-12.27-4.94-8,0-12.6,5.2t-4.61,13.21V187.7Z" transform="translate(-2.16 -0.21)"/><path class="cls-8" d="M836.89,187.7V64.33h19.42v50.61q2.9-4.93,9.63-8.69t16.44-3.75a38.93,38.93,0,0,1,16.53,3.32,34,34,0,0,1,12,9.21,40.4,40.4,0,0,1,7.32,13.71,56.37,56.37,0,0,1,2.47,17A54.62,54.62,0,0,1,918,163.25a41.86,41.86,0,0,1-7.76,14,35.23,35.23,0,0,1-12.26,9.2,38.55,38.55,0,0,1-16.28,3.32,31.79,31.79,0,0,1-15.42-3.57,26.18,26.18,0,0,1-10.14-9.55V187.7ZM900.79,146q0-12.44-6.22-19.17t-16.1-6.73a21.09,21.09,0,0,0-15.94,6.73q-6.39,6.74-6.39,19.17a32.93,32.93,0,0,0,1.71,11,24.92,24.92,0,0,0,4.68,8.27,19.88,19.88,0,0,0,7.08,5.19,21.69,21.69,0,0,0,8.86,1.79,20.6,20.6,0,0,0,16-7Q900.78,158.22,900.79,146Z" transform="translate(-2.16 -0.21)"/><path class="cls-8" d="M977,102.16a43.71,43.71,0,0,1,17.21,3.32,41.56,41.56,0,0,1,22.66,23.09,46.38,46.38,0,0,1,3.24,17.55,47,47,0,0,1-3.24,17.64,41.3,41.3,0,0,1-22.66,23.17,46,46,0,0,1-34.33,0,40.56,40.56,0,0,1-13.63-9.2,42.34,42.34,0,0,1-9-14A47,47,0,0,1,934,146.12a46.38,46.38,0,0,1,3.24-17.55,42.46,42.46,0,0,1,9-13.88,40.73,40.73,0,0,1,13.63-9.21A43.9,43.9,0,0,1,977,102.16Zm0,70.37a23,23,0,0,0,8.78-1.7,21.62,21.62,0,0,0,7.41-5,23.57,23.57,0,0,0,5.11-8.26,32.05,32.05,0,0,0,1.88-11.42,31.39,31.39,0,0,0-1.88-11.33,23.86,23.86,0,0,0-5.11-8.18,20.83,20.83,0,0,0-7.41-4.94,24.58,24.58,0,0,0-17.55,0,19.94,19.94,0,0,0-7.33,4.94,25.64,25.64,0,0,0-5.11,8.18,30.1,30.1,0,0,0-2,11.33,30.74,30.74,0,0,0,2,11.42,25.28,25.28,0,0,0,5.11,8.26,20.68,20.68,0,0,0,7.33,5A22.87,22.87,0,0,0,977,172.53Z" transform="translate(-2.16 -0.21)"/><path class="cls-8" d="M1055.16,145.78l-29.65-41.06H1049a26,26,0,0,0,1.79,2.72q1.44,2.06,3.32,4.77t4,5.88q2.13,3.16,4,5.88c1.25,1.82,2.35,3.41,3.32,4.77s1.56,2.22,1.79,2.56l18.06-26.58h22.49l-29.13,40.72,30.16,42.26h-23.18l-19.25-27.78c-.34.46-1,1.4-1.88,2.82s-2,3.06-3.32,4.94-2.7,3.92-4.17,6.13-2.87,4.26-4.18,6.14-2.44,3.52-3.41,4.94-1.56,2.36-1.79,2.81H1025Z" transform="translate(-2.16 -0.21)"/></svg>