<svg width="165" height="28" viewBox="0 0 165 28" fill="none" xmlns="http://www.w3.org/2000/svg">
<path d="M35.5628 11.1319C37.1289 8.97413 39.1974 8.07673 41.6966 8.16251C44.1893 8.24169 46.2382 9.18529 47.5237 11.5542C47.6934 11.343 47.8043 11.2176 47.9087 11.0857C49.2594 9.40304 51.0017 8.46605 53.129 8.2219C54.6167 8.05034 56.0653 8.2087 57.4422 8.80257C59.4324 9.66038 60.6396 11.2308 61.142 13.316C61.39 14.3454 61.5336 15.4209 61.5466 16.4767C61.5988 19.9475 61.5662 23.4184 61.5662 26.8958C61.5662 27.4501 61.5597 27.4567 61.0181 27.4633H57.3313C56.8288 27.4633 56.8158 27.4501 56.8158 26.9486C56.8158 23.6361 56.8353 20.3236 56.7962 17.0112C56.7897 16.2325 56.6461 15.4407 56.4242 14.6885C55.9087 12.9267 54.3688 12.0491 52.5547 12.2536C50.4732 12.4912 49.142 14.0748 48.8027 16.1204C48.6917 16.7736 48.6461 17.4467 48.6395 18.1131C48.62 21.0231 48.633 23.9331 48.633 26.8496C48.633 27.2587 48.4264 27.4633 48.0131 27.4633H44.4829C44.0827 27.4633 43.8804 27.2543 43.8761 26.8364C43.8761 23.5239 43.9087 20.2115 43.8499 16.899C43.8369 16.0346 43.6346 15.1438 43.3345 14.3322C42.6884 12.5835 41.0767 12.115 39.5693 12.2668C37.3051 12.4912 36.0783 14.2794 35.7847 16.3249C35.7129 16.8132 35.6933 17.3081 35.6933 17.803C35.6868 20.8317 35.6933 23.8671 35.6933 26.8958C35.6933 27.2785 35.5019 27.4699 35.1191 27.4699C33.8662 27.4699 32.6068 27.4633 31.354 27.4699C30.9951 27.4699 30.8711 27.3643 30.8711 26.9882C30.8776 21.0297 30.8776 15.0778 30.8711 9.1193C30.8711 8.75638 30.9755 8.62441 31.3474 8.62441C32.4567 8.64421 33.5661 8.64421 34.6819 8.62441C35.0147 8.62441 35.1517 8.73659 35.1909 9.06651C35.2626 9.63399 35.3736 10.2015 35.4714 10.7623C35.4845 10.8481 35.5171 10.9339 35.5758 11.1319H35.5628Z" fill="#3060FE"/>
<path d="M22.1211 24.4214C21.9384 24.692 21.7622 24.9691 21.5599 25.2265C20.3266 26.8167 18.7083 27.6679 16.7246 27.8659C15.2891 28.0111 13.8992 27.8659 12.5745 27.272C10.643 26.4142 9.50764 24.8504 9.00519 22.8378C8.75071 21.815 8.60715 20.7329 8.5941 19.6771C8.5419 16.1799 8.57452 12.6826 8.57452 9.17879C8.57452 8.63111 8.58105 8.62451 9.1357 8.62451H12.7834C13.3054 8.62451 13.3184 8.63771 13.3184 9.15899C13.3184 12.4847 13.3054 15.8103 13.338 19.136C13.3445 19.8355 13.4685 20.5547 13.6708 21.2212C14.2907 23.2667 15.7132 23.9661 17.7687 23.821C20.294 23.6428 21.9188 21.5841 21.9775 19.037C22.0428 15.7707 22.0363 12.4979 22.0624 9.22498C22.0624 8.82467 22.2603 8.62451 22.6562 8.62451C23.8829 8.62451 25.1162 8.63771 26.343 8.62451C26.7084 8.62451 26.8193 8.74988 26.8193 9.11281C26.8128 15.0713 26.8128 21.0232 26.8193 26.9817C26.8193 27.3512 26.6953 27.47 26.3364 27.4634C25.2402 27.4436 24.1439 27.4502 23.0477 27.4634C22.7018 27.4634 22.5648 27.3578 22.5322 26.9883C22.4604 26.1437 22.3299 25.2991 22.2255 24.4544C22.1929 24.4478 22.1602 24.4346 22.1276 24.428L22.1211 24.4214Z" fill="#3060FE"/>
<path d="M4.76348 13.7516V26.8497C4.76348 27.2544 4.56772 27.4568 4.1762 27.4568C2.94944 27.4568 1.71616 27.4502 0.489399 27.4568C0.130506 27.4699 0 27.3512 0 26.9817C0.00652532 18.166 0.00652532 9.35692 0 0.54785C0 0.184929 0.104405 0.0463599 0.476348 0.0529584C1.74226 0.0727541 3.0147 0.0727541 4.28061 0.0529584C4.72433 0.0463599 4.77001 0.257514 4.77001 0.613835C4.76348 4.99528 4.77001 9.37012 4.77001 13.7516H4.76348Z" fill="#3060FE"/>
<path d="M65.5342 18.0472V9.19199C65.5342 8.63771 65.5472 8.63111 66.0888 8.62451C67.3286 8.62451 68.575 8.63111 69.8148 8.62451C70.1737 8.62451 70.2977 8.74329 70.2977 9.10621C70.2911 15.0647 70.2911 21.0166 70.2977 26.9751C70.2977 27.338 70.1867 27.47 69.8213 27.4634C68.5815 27.4436 67.3352 27.4634 66.0954 27.4568C65.5472 27.4568 65.5407 27.4502 65.5342 26.9025C65.5342 23.953 65.5342 21.0034 65.5342 18.0472Z" fill="#3060FE"/>
<path d="M67.9284 0.0595838C69.0834 0.138766 70.023 0.501687 70.5777 1.51786C71.4977 3.20709 70.4472 5.27904 68.5548 5.56278C67.4847 5.72774 66.4994 5.56938 65.7033 4.74456C64.8876 3.89994 64.7114 2.89036 65.0964 1.8214C65.4553 0.844812 66.2383 0.316927 67.2498 0.132168C67.4977 0.085978 67.7457 0.0727809 67.9284 0.0463867V0.0595838Z" fill="#3060FE"/>
<path d="M102.708 27.5029H99.6088V16.6681C99.6088 15.6453 99.5566 14.6291 99.2564 13.6394C98.5908 11.4288 96.8551 10.2807 94.5777 10.538C92.6006 10.7624 91.3086 11.8973 90.5255 13.6922C89.9904 14.9063 89.873 16.193 89.873 17.4995V27.5029H86.7082V27.0608C86.7082 23.2601 86.7082 19.4593 86.6821 15.6585C86.6756 14.517 86.4602 13.4084 85.8403 12.4252C84.8746 10.8944 83.1454 10.2213 81.2987 10.604C79.5043 10.9801 78.3884 12.1349 77.6706 13.7647C77.1486 14.9591 77.0573 16.226 77.0573 17.5061C77.0507 20.68 77.0573 23.8539 77.0573 27.0278V27.5029H73.9316V8.26154H76.7506C76.8093 9.13255 76.8746 9.99696 76.9398 10.9669C78.5059 8.74984 80.5548 7.67427 83.1715 7.79305C85.7751 7.91182 87.8436 8.928 89.0051 11.4816C89.2596 11.1187 89.4684 10.7756 89.7294 10.4721C91.6152 8.25494 94.0296 7.48951 96.842 7.89202C98.0492 8.06359 99.1781 8.4661 100.137 9.25792C101.403 10.2939 102.141 11.6664 102.441 13.2566C102.617 14.187 102.708 15.1372 102.715 16.0808C102.747 19.7826 102.728 23.491 102.728 27.1928C102.728 27.2852 102.721 27.3841 102.708 27.5095V27.5029Z" fill="#3060FE"/>
<path d="M142.918 11.4089V0H146.082V27.5028H143.237C143.133 26.4668 143.035 25.444 142.931 24.3883C142.52 24.8634 142.167 25.3121 141.763 25.7146C140.105 27.3642 138.082 28.0373 135.785 27.9581C134.304 27.9119 132.888 27.6084 131.577 26.8627C129.939 25.9323 128.719 24.6192 127.903 22.9036C126.852 20.6931 126.65 18.3638 126.957 15.9685C127.179 14.2463 127.772 12.656 128.81 11.2637C130.193 9.41614 132.033 8.30758 134.291 7.93146C135.785 7.68072 137.273 7.70051 138.741 8.14921C140.405 8.6639 141.75 9.6075 142.696 11.1054C142.741 11.178 142.794 11.2439 142.911 11.4023L142.918 11.4089ZM130.056 17.8821C130.056 17.8821 129.997 17.8953 129.971 17.8953C130.115 18.7597 130.206 19.6307 130.415 20.4753C131.094 23.2137 133.436 25.1537 136.307 25.1867C139.276 25.2263 141.541 23.4315 142.396 20.7129C142.983 18.8455 142.976 16.9451 142.402 15.0711C142.011 13.791 141.325 12.6956 140.275 11.8576C138.989 10.8348 137.515 10.4455 135.896 10.5775C133.86 10.7424 132.281 11.6926 131.198 13.4347C130.356 14.7874 130.076 16.2984 130.056 17.8755L130.056 17.8821Z" fill="#3060FE"/>
<path d="M123.576 21.9271C123.328 22.9235 122.891 23.7747 122.317 24.5665C121.103 26.236 119.478 27.3115 117.488 27.7272C114.63 28.3277 111.935 27.8922 109.586 26.0446C108.059 24.8437 107.074 23.2402 106.558 21.353C105.873 18.8192 105.886 16.2788 106.728 13.7977C107.491 11.5542 108.894 9.82537 111.048 8.7696C113.077 7.77981 115.191 7.61485 117.377 8.01076C120.973 8.67062 123.517 11.7455 123.955 15.1306C124.092 16.1864 124.053 17.2619 124.105 18.3243C124.111 18.5355 124.02 18.608 123.831 18.5948H109.658C109.168 18.5948 109.162 18.608 109.214 19.1029C109.364 20.647 109.827 22.0525 110.832 23.26C111.681 24.2762 112.77 24.8767 114.036 25.1406C115.544 25.4507 116.999 25.2858 118.349 24.5071C119.23 23.9991 119.876 23.2534 120.287 22.3164C120.418 22.0195 120.575 21.9073 120.901 21.9205C121.782 21.9469 122.656 21.9271 123.576 21.9271ZM115.119 16.1072H120.646C120.933 16.1072 121.044 16.0214 120.992 15.7311C120.914 15.3088 120.868 14.8733 120.764 14.4576C120.392 13.0059 119.53 11.9237 118.232 11.2243C116.829 10.4588 115.335 10.3071 113.775 10.637C111.4 11.1385 109.495 13.2632 109.253 15.6981C109.22 16.0214 109.312 16.1138 109.632 16.1072C111.465 16.094 113.292 16.1072 115.126 16.1072H115.119Z" fill="#3060FE"/>
<path d="M149.573 21.5643C150.617 21.5643 151.622 21.5643 152.634 21.5709C152.705 21.5709 152.823 21.6765 152.842 21.7491C153.456 24.2433 155.648 25.3849 158.089 25.2661C159.009 25.2199 159.883 25.0549 160.647 24.5007C162.18 23.3987 162.01 21.109 161.019 20.2578C160.379 19.7035 159.603 19.4396 158.8 19.2482C157.475 18.9249 156.138 18.6411 154.82 18.3046C153.802 18.0407 152.849 17.5986 152.02 16.9387C150.722 15.9093 150.226 14.5302 150.402 12.9004C150.637 10.6899 151.877 9.22501 153.867 8.41998C156.17 7.48959 158.519 7.51598 160.816 8.45958C162.826 9.2778 163.949 10.8746 164.347 13.006C164.379 13.1709 164.399 13.3359 164.431 13.5405H161.391C161.195 13.0522 161.058 12.5573 160.81 12.135C160.21 11.1188 159.231 10.6767 158.115 10.5381C157.117 10.4127 156.131 10.4655 155.165 10.8285C153.815 11.3365 153.156 12.94 153.841 14.1541C154.174 14.7414 154.709 15.0911 155.296 15.3749C156.444 15.9159 157.691 16.1205 158.918 16.391C160.203 16.6748 161.475 17.0047 162.637 17.6712C164.216 18.5752 164.98 19.9477 164.999 21.7755C165.019 23.2205 164.679 24.5271 163.733 25.6422C162.911 26.6122 161.867 27.2391 160.666 27.5756C158.356 28.2156 156.046 28.1563 153.821 27.2325C151.511 26.2757 150.095 24.5403 149.652 22.0328C149.625 21.9008 149.606 21.7755 149.573 21.5775V21.5643Z" fill="#3060FE"/>
</svg>
