<svg xmlns="http://www.w3.org/2000/svg" viewBox="0 0 24 24"><path fill="#C70B00" d="M6.366 11.484v-.001zM5.668 12.853a6.574 6.574 0 0 0-.182.711l.491.413c.024-.252.067-.504.127-.756l-.436-.368zm-.273 2.354c.012.343.042.621.073.815l.727.278a8.799 8.799 0 0 1-.145-.841l-.655-.252z"/><path fill="#C70B00" d="M.469 16.183a4.698 4.698 0 0 0-.045.316l.001.001h4.789s-.915-4.454 2.116-6.259c.661-.343 2.765-1.623 6.207 1.092.109-.097.212-.175.212-.175s-3.153-3.355-6.663-2.981c-1.77.168-3.94 1.882-5.213 4.144-.968 1.719-1.3 3.231-1.404 3.862zm2.362-5.69-.43-.401c-.158.162-.309.323-.448.485l.467.426c.127-.175.267-.349.412-.511l-.001.001z"/><path fill="#C70B00" d="m7.015 11.49-.273-.44a3.522 3.522 0 0 0-.376.433l.291.465c.103-.162.224-.311.358-.458zm.63-3.596L7.524 7.5c-.188 0-.382.013-.582.039l.115.381c.176-.019.352-.026.527-.026h.061zm-2.796.233c-.152.084-.309.175-.473.277l.279.453c.158-.103.309-.2.467-.284l-.273-.446zM1 13.383l-.697-.272c-.115.278-.242.602-.303.776l.697.271c.079-.22.206-.536.303-.775zM7.73 16.5h1.164v-1.112L9.9 16.5h1.721l-1.352-1.454v-.001s1.061-.096 1.061-1.558-1.285-1.597-1.285-1.597H7.73v4.61zm1.163-3.454h.933s.261.103.261.524c0 .42-.267.53-.267.53h-.927v-1.054zM17.604 11.922v4.577h2.88v-1.183h-1.655v-3.394zM5.122 8.572v.001zM15.871 11.922h1.23v4.577h-1.23zM10.427 8.107c-.055-.032-.206-.11-.588-.226l-.025.427c.2.071.394.149.588.232v.001l.025-.434zM7.875 10.275v-.001zM10.427 9.995a4.079 4.079 0 0 0-.6-.084v.001l-.024.407c.2.006.4.032.6.077l.024-.401zm3.776 1.927h-1.182c-.842 0-1.127.815-1.127 1.203V16.5h1.182v-.809h1.109v.809h1.145v-3.375c.001-.983-.835-1.203-1.127-1.203zm-1.133 2.463v-1.118s0-.253.37-.253h.406c.327 0 .333.253.333.253v1.118H13.07zm9.42.372c.041 0 .062 0 0 0zm1.353-1.658v-1.177h-1.879c-.485 0-1.133.426-1.133 1.222v.407c0 .796.642 1.203 1.133 1.203l.527.002c-.095-.001-.274-.002.406-.002v.569l-2.006.006V16.5h1.982c.406 0 1.103-.317 1.127-1.203v-.453c0-.756-.582-1.203-1.127-1.203h-.988v-.543h1.958zM8.541 10.494l-.133-.426a4.11 4.11 0 0 0-.533.207l.139.446c.176-.091.352-.169.527-.227z"/></svg>